<svg width="427" height="109" viewBox="0 0 427 109" fill="none" xmlns="http://www.w3.org/2000/svg">
<path d="M0.658997 88.8812C4.50857 95.84 15.317 108.869 39.4508 108.869C63.4366 108.869 74.245 96.1361 78.2427 88.8812V62.0823C74.5411 55.7157 67.1381 48.3126 44.4849 43.4266L37.6741 41.946C31.3075 40.6135 28.9385 38.6887 27.606 36.1717V28.0284C29.2347 25.2152 33.0842 21.9579 39.4508 21.9579C45.6694 21.9579 49.8151 24.9191 51.2957 28.0284V35.8756H78.2427V20.6253C74.5411 13.8146 63.4366 0.78524 39.4508 0.78524C15.317 0.78524 4.36051 13.8146 0.658997 20.6253V46.0917C4.21245 52.4583 11.9116 59.5652 34.7129 64.5993L41.3756 66.0799C47.4461 67.4124 49.8151 69.3372 51.2957 72.0023V81.6262C49.5189 84.7355 45.6694 87.6967 39.4508 87.6967C33.0842 87.6967 29.2347 84.7355 27.606 81.6262V73.0387H0.658997V88.8812Z" fill="url(#paint0_linear)"/>
<path d="M108.424 106.648H136.555V23.5865H158.912V3.00614H85.9187V23.5865H108.424V106.648Z" fill="url(#paint1_linear)"/>
<path d="M169.875 106.648H198.006V70.2256H205.113L226.286 106.648H248.643V91.5463L232.504 66.5241C239.019 63.4148 244.053 58.5288 247.458 52.4583V20.6253C240.944 9.37275 229.247 3.00614 215.921 3.00614H169.875V106.648ZM198.006 50.8297V23.5865H209.555C214.885 23.5865 219.031 25.6594 220.807 29.2128V45.3514C219.031 48.9049 215.181 50.8297 209.555 50.8297H198.006Z" fill="url(#paint2_linear)"/>
<path d="M280.697 106.648H308.828V67.2644L335.479 18.1083V3.00614H312.53L298.02 35.7275H295.207L280.993 3.00614H255.526V18.1083L280.697 64.4512V106.648Z" fill="url(#paint3_linear)"/>
<path d="M374.551 86.068V23.5865H386.1C392.318 23.5865 396.612 26.3997 398.092 29.9531V79.7014C396.612 83.2549 392.318 86.068 386.1 86.068H374.551ZM346.419 106.648H392.022C410.974 106.648 421.782 95.9881 426.224 86.2161V23.4385C421.782 13.6665 410.974 3.00614 392.022 3.00614H346.419V106.648Z" fill="url(#paint4_linear)"/>
<defs>
<linearGradient id="paint0_linear" x1="-5.39758" y1="57.2458" x2="433" y2="57.2458" gradientUnits="userSpaceOnUse">
<stop stop-color="#F77120"/>
<stop offset="1" stop-color="#FECA2F"/>
</linearGradient>
<linearGradient id="paint1_linear" x1="-5.39758" y1="57.2458" x2="433" y2="57.2458" gradientUnits="userSpaceOnUse">
<stop stop-color="#F77120"/>
<stop offset="1" stop-color="#FECA2F"/>
</linearGradient>
<linearGradient id="paint2_linear" x1="-5.39758" y1="57.2458" x2="433" y2="57.2458" gradientUnits="userSpaceOnUse">
<stop stop-color="#F77120"/>
<stop offset="1" stop-color="#FECA2F"/>
</linearGradient>
<linearGradient id="paint3_linear" x1="-5.39758" y1="57.2458" x2="433" y2="57.2458" gradientUnits="userSpaceOnUse">
<stop stop-color="#F77120"/>
<stop offset="1" stop-color="#FECA2F"/>
</linearGradient>
<linearGradient id="paint4_linear" x1="-5.39758" y1="57.2458" x2="433" y2="57.2458" gradientUnits="userSpaceOnUse">
<stop stop-color="#F77120"/>
<stop offset="1" stop-color="#FECA2F"/>
</linearGradient>
</defs>
</svg>
